<?xml version="1.0" standalone="no"?><!DOCTYPE svg PUBLIC "-//W3C//DTD SVG 1.1//EN" "http://www.w3.org/Graphics/SVG/1.1/DTD/svg11.dtd"><svg t="1770366759203" class="icon" viewBox="0 0 1024 1024" version="1.1" xmlns="http://www.w3.org/2000/svg" p-id="8955" xmlns:xlink="http://www.w3.org/1999/xlink" width="200" height="200"><path d="M837.632 358.4c27.136 0 49.152 21.504 49.152 48.64 0 24.576-17.92 45.568-42.496 48.64l-6.656 0.512H186.368c-27.136 0-49.152-21.504-49.152-48.64 0-24.576 17.92-45.568 42.496-48.64l6.656-0.512h651.264zM846.848 573.952c22.528 0 40.448 22.016 40.448 49.152 0 24.576-15.36 45.568-34.816 48.64l-5.632 0.512H177.664c-22.528 0-40.448-22.016-40.448-49.152 0-24.576 15.36-45.056 34.816-48.64l5.632-0.512h669.184zM498.688 746.496l-79.872 138.24c-6.144 10.24 1.536 23.04 13.312 23.04h159.744c11.776 0 19.456-12.8 13.312-23.04l-79.872-138.24c-5.632-10.24-20.48-10.24-26.624 0zM525.312 277.504l79.872-138.24c6.144-10.24-1.536-23.04-13.312-23.04H432.64c-11.776 0-19.456 12.8-13.312 23.04l79.872 138.24c5.632 10.24 20.48 10.24 26.112 0z" p-id="8956" fill="#1296db"></path></svg>