<?xml version="1.0" standalone="no"?><!DOCTYPE svg PUBLIC "-//W3C//DTD SVG 1.1//EN" "http://www.w3.org/Graphics/SVG/1.1/DTD/svg11.dtd"><svg t="1770301810754" class="icon" viewBox="0 0 1024 1024" version="1.1" xmlns="http://www.w3.org/2000/svg" p-id="5833" xmlns:xlink="http://www.w3.org/1999/xlink" width="200" height="200"><path d="M560.88576 541.93152a57.62048 57.62048 0 0 1 16.75264-47.2576 85.26848 85.26848 0 0 1 53.3504-12.9024v31.90784a44.40064 44.40064 0 0 0-26.92096 5.8368 30.52544 30.52544 0 0 0-7.07584 23.86944v65.26976a48.45568 48.45568 0 0 1-5.71392 22.65088 32.91136 32.91136 0 0 1-15.70816 16.0768A32.1536 32.1536 0 0 1 590.848 662.7328c4.12672 7.10656 6.26688 15.18592 6.21568 23.3984V751.616a29.952 29.952 0 0 0 7.07584 23.84896c8.192 4.58752 17.58208 6.54336 26.91072 5.61152v31.91808a85.2992 85.2992 0 0 1-53.42208-12.9024 57.58976 57.58976 0 0 1-16.6912-47.23712v-47.0528c0.512-10.5472-0.2048-21.11488-2.10944-31.50848a21.52448 21.52448 0 0 0-20.5312-14.9504v-23.63392a22.016 22.016 0 0 0 20.5312-15.33952c1.92512-10.28096 2.62144-20.74624 2.06848-31.19104v-47.24736h-0.02048z m374.08768 85.00224a20.25472 20.25472 0 0 0 17.34656 8.73472v23.68512c-4.87424 0.09216-9.6256 1.56672-13.68064 4.25984a25.02656 25.02656 0 0 0-6.62528 10.83392c-1.1264 3.80928-1.7408 7.74144-1.8432 11.71456-0.14336 2.41664-0.22528 8.98048-0.22528 19.70176v47.104a57.15968 57.15968 0 0 1-16.896 47.22688 85.32992 85.32992 0 0 1-53.41184 12.65664v-31.744a45.7216 45.7216 0 0 0 27.06432-5.60128 30.26944 30.26944 0 0 0 6.9632-23.84896v-65.536a50.11456 50.11456 0 0 1 6.05184-23.01952c3.06176-6.912 8.4992-12.4928 15.33952-15.7184a33.11616 33.11616 0 0 1-15.17568-15.33952 48.08704 48.08704 0 0 1-6.20544-23.38816v-65.51552a30.208 30.208 0 0 0-6.97344-23.8592 45.73184 45.73184 0 0 0-27.06432-5.60128v-31.8976a85.26848 85.26848 0 0 1 53.3504 12.9024 57.1392 57.1392 0 0 1 16.91648 47.22688v47.28832c0 10.57792 0.07168 17.07008 0.22528 19.47648 0.24576 6.36928 1.87392 12.60544 4.78208 18.2784l0.06144-0.02048z m-268.19584 43.22304a22.76352 22.76352 0 1 0 0-45.53728 22.76352 22.76352 0 0 0 0 45.53728z m85.69856 0a22.76352 22.76352 0 1 0-21.37088-22.77376 22.08768 22.08768 0 0 0 21.37088 22.77376z m85.67808 0a22.76352 22.76352 0 1 0-21.36064-22.77376 22.08768 22.08768 0 0 0 21.34016 22.77376h0.02048zM254.5152 370.74944c0 13.14816-3.39968 24.94464-10.1376 35.4304-6.77888 10.48576-16.6912 18.6368-29.70624 24.576-13.0048 5.92896-28.48768 8.89856-46.35648 8.89856-21.43232 0-39.09632-4.01408-53.02272-12.10368a70.8096 70.8096 0 0 1-24.064-23.32672C84.98176 394.41408 81.92 384.9728 81.92 375.808c0-5.3248 1.85344-9.91232 5.56032-13.7216 3.70688-3.80928 8.42752-5.70368 14.16192-5.70368 4.64896 0 8.56064 1.45408 11.79648 4.42368 3.1744 2.9696 5.89824 7.3728 8.192 13.2096 2.7648 6.912 5.7344 12.70784 8.97024 17.36704 3.19488 4.64896 7.72096 8.45824 13.54752 11.45856 5.8368 3.03104 13.48608 4.54656 22.95808 4.54656 13.04576 0 23.63392-3.072 31.75424-9.13408 8.16128-6.10304 12.2368-13.64992 12.2368-22.75328 0-7.2192-2.19136-13.07648-6.6048-17.5616-4.38272-4.51584-10.0864-7.92576-17.02912-10.32192-6.97344-2.3552-16.2816-4.88448-27.94496-7.5776-15.5648-3.584-28.6208-7.85408-39.168-12.77952-10.51648-4.88448-18.88256-11.5712-25.01632-19.98848-6.20544-8.42752-9.2672-18.91328-9.2672-31.45728 0-11.9296 3.2768-22.5792 9.7792-31.8464 6.5024-9.27744 15.94368-16.42496 28.28288-21.4016 12.32896-4.99712 26.85952-7.5264 43.55072-7.5264 13.34272 0 24.84224 1.6896 34.59072 4.95616 9.70752 3.33824 17.79712 7.72096 24.19712 13.2096 6.41024 5.46816 11.13088 11.23328 14.05952 17.26464 2.92864 6.0416 4.44416 11.9296 4.44416 17.63328 0 5.2224-1.8432 9.9328-5.56032 14.12096a17.4592 17.4592 0 0 1-13.78304 6.30784c-5.0176 0-8.86784-1.24928-11.4688-3.74784-2.6624-2.56-5.48864-6.67648-8.56064-12.40064-3.9424-8.192-8.66304-14.56128-14.19264-19.17952-5.56032-4.58752-14.42816-6.88128-26.66496-6.88128-11.35616 0-20.49024 2.49856-27.47392 7.4752-6.94272 4.99712-10.4448 10.99776-10.4448 18.01216 0 4.34176 1.1776 8.0896 3.54304 11.264 2.3552 3.16416 5.632 5.888 9.76896 8.15104a66.56 66.56 0 0 0 12.60544 5.3248c4.2496 1.28 11.264 3.1744 21.0432 5.59104a357.4784 357.4784 0 0 1 33.26976 9.48224c9.91232 3.50208 18.37056 7.68 25.31328 12.5952a52.19328 52.19328 0 0 1 16.2816 18.74944c3.91168 7.5776 5.86752 16.82432 5.86752 27.78112z m30.63808-91.9552h4.4544v-24.30976c0-6.51264 0.17408-11.6736 0.54272-15.33952 0.33792-3.70688 1.31072-6.912 2.8672-9.54368 1.57696-2.7648 3.84-5.0176 6.8096-6.73792a19.1488 19.1488 0 0 1 9.9328-2.63168c5.13024 0 9.7792 1.92512 13.9264 5.79584 2.7648 2.56 4.5568 5.69344 5.26336 9.3696 0.73728 3.74784 1.10592 9.0112 1.10592 15.77984v27.60704h14.80704c5.7344 0 10.07616 1.35168 13.1072 4.0448 3.04128 2.73408 4.5568 6.2464 4.5568 10.4448 0 5.46816-2.16064 9.24672-6.4512 11.43808-4.27008 2.19136-10.47552 3.23584-18.432 3.23584h-7.5776v74.36288c0 6.33856 0.2048 11.19232 0.6656 14.592 0.47104 3.40992 1.65888 6.17472 3.54304 8.2944 1.92512 2.12992 5.05856 3.20512 9.40032 3.20512 2.3552 0 5.60128-0.44032 9.61536-1.24928 4.07552-0.83968 7.23968-1.28 9.472-1.28 3.29728 0 6.1952 1.31072 8.82688 3.9424 2.63168 2.60096 3.9424 5.86752 3.9424 9.6768 0 6.5024-3.5328 11.53024-10.6496 14.97088-7.1168 3.4304-17.39776 5.15072-30.67904 5.15072-12.63616 0-22.24128-2.08896-28.75392-6.33856a29.5936 29.5936 0 0 1-12.8-17.59232c-2.02752-7.4752-3.04128-17.5616-3.04128-30.1056v-77.62944h-5.3248c-5.8368 0-10.28096-1.3824-13.35296-4.1472-3.072-2.7648-4.57728-6.27712-4.57728-10.5472 0-4.21888 1.57696-7.72096 4.8128-10.45504 3.20512-2.6624 7.8848-4.01408 13.98784-4.01408z m145.32608 102.5024v33.78176c0 8.192-1.91488 14.32576-5.7344 18.432-3.87072 4.08576-8.7552 6.144-14.6944 6.144-5.85728 0-10.57792-2.05824-14.35648-6.20544-3.77856-4.1472-5.66272-10.28096-5.66272-18.37056V302.4896c0-18.176 6.57408-27.27936 19.68128-27.27936 6.7072 0 11.60192 2.08896 14.57152 6.3488 2.9696 4.23936 2.56 8.51968 2.89792 16.81408 4.8128-8.2944 11.79648-12.57472 16.85504-16.82432 5.04832-4.2496 11.9296-6.33856 20.38784-6.33856a51.8144 51.8144 0 0 1 24.6784 6.3488c8.02816 4.23936 12.032 9.87136 12.032 16.87552 0 4.92544-1.71008 9.04192-5.12 12.20608-3.44064 3.23584-7.1168 4.85376-11.0592 4.85376-1.44384 0-5.05856-0.91136-10.72128-2.7648-5.66272-1.81248-10.6496-2.72384-15.0016-2.72384-5.92896 0-10.78272 1.54624-14.56128 4.67968-3.7376 3.10272-6.63552 7.72096-8.704 13.85472-2.07872 6.144-3.5328 13.38368-4.34176 21.8112-0.73728 8.4992-1.14688 18.7392-1.14688 30.94528z m81.95072 13.75232a25.31328 25.31328 0 0 0-25.28256 25.2928 25.32352 25.32352 0 0 0 25.2928 25.31328 25.2928 25.2928 0 1 0 0-50.59584zM441.36448 691.712l-101.41696-76.07296v46.34624h-36.46464c-72.71424-0.512-125.0304-28.64128-138.47552-72.68352-3.49184 103.86432 79.48288 119.0912 138.47552 117.62688h36.47488v60.84608l101.40672-76.06272z" fill="#E8016A" p-id="5834"></path></svg>