<?xml version="1.0" standalone="no"?><!DOCTYPE svg PUBLIC "-//W3C//DTD SVG 1.1//EN" "http://www.w3.org/Graphics/SVG/1.1/DTD/svg11.dtd"><svg t="1770302106095" class="icon" viewBox="0 0 1024 1024" version="1.1" xmlns="http://www.w3.org/2000/svg" p-id="5992" xmlns:xlink="http://www.w3.org/1999/xlink" width="200" height="200"><path d="M104.4992 255.04768a57.62048 57.62048 0 0 1 16.7424-47.24736 85.23776 85.23776 0 0 1 53.32992-12.89216v31.88736a44.40064 44.40064 0 0 0-26.91072 5.8368 30.5152 30.5152 0 0 0-7.0656 23.8592v65.24928a48.4352 48.4352 0 0 1-5.72416 22.64064 32.90112 32.90112 0 0 1-15.69792 16.0768c6.71744 3.19488 12.12416 8.6016 15.28832 15.33952 4.11648 7.09632 6.26688 15.17568 6.20544 23.37792v65.47456a29.952 29.952 0 0 0 7.07584 23.84896 45.70112 45.70112 0 0 0 26.91072 5.60128v31.90784a85.25824 85.25824 0 0 1-53.41184-12.89216 57.57952 57.57952 0 0 1-16.6912-47.21664v-47.04256c0.512-10.5472-0.19456-21.11488-2.0992-31.49824A21.52448 21.52448 0 0 0 81.92 372.4288v-23.63392a21.99552 21.99552 0 0 0 20.5312-15.32928c1.91488-10.28096 2.6112-20.74624 2.06848-31.19104v-47.21664h-0.02048z m373.9648 84.97152a20.224 20.224 0 0 0 17.33632 8.72448v23.67488c-4.87424 0.1024-9.6256 1.57696-13.68064 4.27008-3.10272 2.9696-5.38624 6.69696-6.62528 10.81344-1.10592 3.81952-1.73056 7.75168-1.8432 11.71456-0.14336 2.42688-0.22528 8.98048-0.22528 19.70176v47.08352a57.15968 57.15968 0 0 1-16.88576 47.21664 85.2992 85.2992 0 0 1-53.39136 12.6464v-31.72352a45.71136 45.71136 0 0 0 27.05408-5.60128 30.2592 30.2592 0 0 0 6.9632-23.84896v-65.51552a50.09408 50.09408 0 0 1 6.0416-23.00928c3.072-6.912 8.4992-12.4928 15.33952-15.70816a33.10592 33.10592 0 0 1-15.16544-15.32928 48.0768 48.0768 0 0 1-6.20544-23.38816v-65.49504a30.208 30.208 0 0 0-6.97344-23.83872 45.7216 45.7216 0 0 0-27.05408-5.61152v-31.88736a85.23776 85.23776 0 0 1 53.32992 12.9024 57.11872 57.11872 0 0 1 16.90624 47.2064v47.26784c0 10.58816 0.08192 17.08032 0.23552 19.47648 0.24576 6.36928 1.87392 12.5952 4.77184 18.2784l0.06144-0.02048z m-268.11392 43.2128a22.76352 22.76352 0 1 0 0-45.53728 22.76352 22.76352 0 0 0 0 45.52704z m85.66784 0a22.77376 22.77376 0 1 0-21.3504-22.77376 22.08768 22.08768 0 0 0 21.3504 22.76352z m85.6576 0a22.77376 22.77376 0 1 0-21.36064-22.77376 22.08768 22.08768 0 0 0 21.34016 22.76352h0.02048zM416.3584 744.86784l-101.376-76.04224v46.336H278.528c-72.69376-0.53248-124.9792-28.64128-138.43456-72.66304-3.4816 103.8336 79.4624 119.06048 138.43456 117.58592h36.46464v60.8256l101.376-76.04224zM669.21472 748.38016c0 13.14816-3.39968 24.9344-10.1376 35.42016-6.77888 10.47552-16.6912 18.6368-29.696 24.56576-13.0048 5.9392-28.4672 8.89856-46.336 8.89856-21.43232 0-39.08608-4.01408-53.00224-12.10368a70.8096 70.8096 0 0 1-24.064-23.31648c-6.23616-9.80992-9.29792-19.2512-9.29792-28.40576 0-5.3248 1.8432-9.91232 5.56032-13.7216 3.70688-3.80928 8.42752-5.69344 14.15168-5.69344 4.64896 0 8.56064 1.45408 11.79648 4.41344 3.1744 2.9696 5.89824 7.38304 8.192 13.2096 2.7648 6.912 5.7344 12.70784 8.96 17.3568 3.20512 4.64896 7.72096 8.45824 13.54752 11.45856 5.8368 3.03104 13.47584 4.54656 22.94784 4.54656 13.04576 0 23.62368-3.072 31.744-9.13408 8.16128-6.0928 12.2368-13.63968 12.2368-22.7328 0-7.2192-2.19136-13.08672-6.6048-17.57184-4.38272-4.5056-10.07616-7.91552-17.01888-10.31168-6.97344-2.3552-16.2816-4.88448-27.93472-7.5776-15.5648-3.57376-28.61056-7.85408-39.168-12.76928-10.50624-4.88448-18.86208-11.56096-24.99584-19.98848-6.20544-8.41728-9.2672-18.90304-9.2672-31.4368 0-11.9296 3.26656-22.5792 9.76896-31.8464 6.5024-9.2672 15.94368-16.41472 28.27264-21.4016 12.3392-4.98688 26.85952-7.51616 43.54048-7.51616 13.34272 0 24.832 1.6896 34.58048 4.95616 9.69728 3.33824 17.78688 7.72096 24.18688 13.2096 6.41024 5.45792 11.12064 11.22304 14.05952 17.2544 2.92864 6.0416 4.44416 11.9296 4.44416 17.62304 0 5.2224-1.8432 9.94304-5.56032 14.1312a17.44896 17.44896 0 0 1-13.78304 6.2976c-5.0176 0-8.8576-1.24928-11.45856-3.74784-2.6624-2.56-5.48864-6.66624-8.56064-12.3904-3.9424-8.192-8.66304-14.56128-14.1824-19.17952-5.56032-4.58752-14.42816-6.88128-26.65472-6.88128-11.3664 0-20.49024 2.49856-27.46368 7.4752-6.94272 4.99712-10.4448 10.99776-10.4448 18.00192 0 4.352 1.1776 8.0896 3.5328 11.264 2.3552 3.16416 5.632 5.888 9.76896 8.15104 4.1472 2.2528 8.36608 4.0448 12.60544 5.3248 4.2496 1.28 11.264 3.1744 21.03296 5.59104 12.22656 2.89792 23.31648 6.06208 33.25952 9.472 9.90208 3.50208 18.36032 7.68 25.30304 12.5952a52.19328 52.19328 0 0 1 16.2816 18.7392c3.90144 7.5776 5.85728 16.81408 5.85728 27.77088z m30.63808-91.93472h4.44416v-24.28928c0-6.5024 0.17408-11.66336 0.54272-15.33952 0.33792-3.70688 1.31072-6.90176 2.8672-9.53344 1.57696-2.7648 3.84-5.0176 6.79936-6.73792 2.9696-1.75104 6.26688-2.63168 9.94304-2.63168 5.12 0 9.7792 1.92512 13.9264 5.79584 2.7648 2.56 4.54656 5.69344 5.25312 9.3696 0.73728 3.7376 1.10592 9.00096 1.10592 15.7696v27.5968h14.7968c5.7344 0 10.07616 1.35168 13.1072 4.0448 3.03104 2.73408 4.54656 6.2464 4.54656 10.4448 0 5.46816-2.1504 9.23648-6.43072 11.42784-4.28032 2.19136-10.48576 3.23584-18.432 3.23584h-7.5776v74.3424c0 6.33856 0.2048 11.18208 0.6656 14.592 0.47104 3.39968 1.64864 6.16448 3.54304 8.2944 1.91488 2.11968 5.04832 3.19488 9.40032 3.19488 2.3552 0 5.59104-0.44032 9.60512-1.24928 4.07552-0.83968 7.23968-1.28 9.472-1.28 3.29728 0 6.1952 1.32096 8.82688 3.9424 2.62144 2.60096 3.9424 5.86752 3.9424 9.6768 0 6.5024-3.54304 11.52-10.6496 14.9504-7.1168 3.45088-17.38752 5.16096-30.6688 5.16096-12.63616 0-22.24128-2.08896-28.74368-6.32832a29.5936 29.5936 0 0 1-12.8-17.59232c-2.02752-7.4752-3.04128-17.5616-3.04128-30.09536v-77.60896h-5.3248c-5.8368 0-10.28096-1.3824-13.34272-4.1472-3.072-2.7648-4.58752-6.26688-4.58752-10.5472 0-4.20864 1.5872-7.71072 4.82304-10.4448 3.20512-2.6624 7.8848-4.01408 13.98784-4.01408z m145.27488 102.48192v33.77152c0 8.192-1.92512 14.31552-5.7344 18.432-3.87072 4.07552-8.7552 6.13376-14.68416 6.13376-5.86752 0-10.58816-2.05824-14.35648-6.20544-3.77856-4.1472-5.66272-10.28096-5.66272-18.36032V680.1408c0-18.16576 6.57408-27.25888 19.68128-27.25888 6.7072 0 11.59168 2.08896 14.55104 6.32832 2.9696 4.2496 2.56 8.52992 2.89792 16.81408 4.82304-8.2944 11.79648-12.56448 16.85504-16.81408 5.04832-4.23936 11.9296-6.32832 20.3776-6.32832 8.46848 0 16.72192 2.08896 24.6784 6.32832 8.01792 4.2496 12.032 9.8816 12.032 16.896 0 4.9152-1.72032 9.02144-5.12 12.1856-3.44064 3.23584-7.1168 4.85376-11.0592 4.85376-1.44384 0-5.05856-0.91136-10.71104-2.7648-5.66272-1.81248-10.6496-2.72384-15.0016-2.72384-5.9392 0-10.78272 1.54624-14.56128 4.67968-3.7376 3.10272-6.63552 7.72096-8.69376 13.85472-2.08896 6.13376-3.5328 13.37344-4.34176 21.8112a361.0624 361.0624 0 0 0-1.14688 30.9248z m81.92 13.75232a25.30304 25.30304 0 0 0-25.27232 25.27232 25.31328 25.31328 0 0 0 25.27232 25.31328 25.2928 25.2928 0 1 0 0-50.5856z" fill="#27AE60" p-id="5993"></path></svg>