<?xml version="1.0" standalone="no"?><!DOCTYPE svg PUBLIC "-//W3C//DTD SVG 1.1//EN" "http://www.w3.org/Graphics/SVG/1.1/DTD/svg11.dtd"><svg t="1770302254627" class="icon" viewBox="0 0 1024 1024" version="1.1" xmlns="http://www.w3.org/2000/svg" p-id="7941" xmlns:xlink="http://www.w3.org/1999/xlink" width="200" height="200"><path d="M290.082748 939.694919l262.97025-357.194238c100.788497 27.76332 212.418924-8.658194 275.641851-99.282191s58.862619-207.965495-1.991354-292.970518L689.878247 386.373815l-138.816603-96.844676L687.886893 93.40432c-100.788497-27.76332-212.418924 8.658194-275.641851 99.282191s-58.862619 207.965495 1.991354 292.970518L164.901701 856.241228l125.181047 83.453691z" fill="#1296db" p-id="7942"></path><path d="M290.069445 958.708971a18.958794 18.958794 0 0 1-10.525728-3.192715l-125.19128-83.460854a18.992563 18.992563 0 0 1-8.111748-12.122085c-0.964978-4.956895 0.055259-10.117428 2.877537-14.31196l242.177691-359.907023c-59.662845-92.575442-58.010205-213.052351 5.365195-303.901475C447.561385 108.839871 531.208481 65.290005 620.423385 65.290005c24.52251 0 48.914036 3.285836 72.508407 9.782808a18.99154 18.99154 0 0 1 12.827143 11.862165 19.033495 19.033495 0 0 1-2.282996 17.337877L577.542762 284.820907l107.611903 75.089186L811.107285 179.362041a18.989493 18.989493 0 0 1 15.4816-8.131192c6.53381 0.538259 11.973706 2.914376 15.57472 7.94495 67.181075 93.875041 68.034513 220.440621 2.116197 314.927599-50.901297 72.954569-134.547369 116.503411-223.763296 116.503411-20.122293 0-40.134069-2.209318-59.699684-6.590092l-255.414157 346.951966c-3.712555 5.048993-9.485025 7.740288-15.33322 7.740288z m-98.738815-107.705024l94.209662 62.818721 252.201999-342.587565c4.659113-6.330172 12.771885-9.169847 20.363793-7.05365a235.081063 235.081063 0 0 0 62.410422 8.40953c76.797084 0 148.785651-37.461193 192.577017-100.242052 51.439556-73.733305 55.615669-170.170704 12.827143-247.765966L705.4632 397.259746a18.972097 18.972097 0 0 1-12.252045 7.833409 18.862603 18.862603 0 0 1-14.219863-3.119037l-138.798183-96.844676c-8.613168-6.014994-10.710946-17.857716-4.715395-26.471908L655.91676 105.981776a236.06753 236.06753 0 0 0-35.493375-2.672875c-76.797084 0-148.785651 37.479613-192.577017 100.260471-56.730049 81.307817-55.987129 190.237739 1.856278 271.025717a19.061125 19.061125 0 0 1 0.315178 21.681811L191.33063 851.003947z" fill="#1296db" p-id="7943"></path></svg>